<svg width="442" height="113" viewBox="0 0 442 113" fill="none" xmlns="http://www.w3.org/2000/svg">
<g clip-path="url(#clip0_1320_4994)">
<path d="M136.86 87.49H167.1C167.19 78.49 171 74.73 175.79 69.99C178.34 67.47 181.22 64.62 184.03 60.49C191.97 48.81 192.88 33.69 186.4 21.03C179.88 8.28001 167.1 0.430011 152.22 0.0100109C138.21 -0.359989 125.14 7.38001 118.12 20.2C110.98 33.25 111.66 48.31 119.92 60.48C122.75 64.63 125.65 67.49 128.21 70.01C133 74.73 136.81 78.48 136.86 87.48V87.49Z" fill="#26C666"/>
<path d="M135.4 88.21C135.55 79.3 132.04 75.84 127.19 71.06C125.84 69.73 124.39 68.3 122.91 66.64L97.47 92.08V56.18H51.98L0 108.16H45.49L65.3 88.35V108.16H81.38H126.87L136.08 98.95V108.16H167.78V88.95H135.38V88.21H135.4Z" fill="#26C666"/>
<path d="M189.52 100.54V65.08H197.22L208.52 87.57L219.67 65.08H227.37V100.54H220.89V76.07L211.01 95.47H205.89L196.01 76.07V100.54H189.53H189.52Z" fill="#606060"/>
<path d="M237.6 71.51C236.42 71.51 235.45 71.16 234.69 70.45C233.93 69.74 233.55 68.85 233.55 67.77C233.55 66.69 233.93 65.8 234.69 65.11C235.45 64.42 236.42 64.07 237.6 64.07C238.78 64.07 239.75 64.42 240.51 65.11C241.27 65.8 241.65 66.69 241.65 67.77C241.65 68.85 241.27 69.75 240.51 70.45C239.75 71.16 238.78 71.51 237.6 71.51ZM234.36 100.54V75.41H240.84V100.54H234.36Z" fill="#606060"/>
<path d="M247.63 100.54V75.41H253.35L253.86 79.66C254.64 78.17 255.76 76.99 257.23 76.11C258.7 75.23 260.43 74.79 262.42 74.79C265.53 74.79 267.94 75.77 269.66 77.73C271.38 79.69 272.24 82.56 272.24 86.34V100.52H265.76V86.94C265.76 84.78 265.32 83.12 264.44 81.98C263.56 80.83 262.19 80.26 260.34 80.26C258.49 80.26 257.02 80.9 255.86 82.18C254.69 83.46 254.11 85.25 254.11 87.55V100.52H247.63V100.54Z" fill="#606060"/>
<path d="M289.98 101.15C287.62 101.15 285.5 100.58 283.65 99.43C281.79 98.28 280.32 96.71 279.24 94.72C278.16 92.73 277.62 90.47 277.62 87.93C277.62 85.39 278.16 83.14 279.24 81.17C280.32 79.19 281.79 77.64 283.65 76.51C285.51 75.38 287.62 74.81 289.98 74.81C291.87 74.81 293.53 75.16 294.94 75.87C296.36 76.58 297.51 77.58 298.38 78.86V64.07H304.86V100.54H299.09L298.38 96.94C297.57 98.05 296.5 99.03 295.16 99.88C293.82 100.73 292.1 101.15 289.97 101.15H289.98ZM291.35 95.48C293.44 95.48 295.16 94.78 296.49 93.38C297.82 91.98 298.49 90.18 298.49 87.98C298.49 85.78 297.82 83.99 296.49 82.58C295.16 81.18 293.44 80.48 291.35 80.48C289.26 80.48 287.58 81.17 286.23 82.56C284.88 83.95 284.2 85.73 284.2 87.93C284.2 90.13 284.87 91.93 286.23 93.35C287.58 94.77 289.29 95.48 291.35 95.48Z" fill="#606060"/>
<path d="M312.62 100.54V80.83H309.17V75.41H312.62V72.47C312.62 69.43 313.39 67.27 314.92 65.99C316.46 64.71 318.54 64.07 321.18 64.07H323.97V69.59H322.2C321.09 69.59 320.29 69.81 319.82 70.25C319.35 70.69 319.11 71.43 319.11 72.48V75.42H324.53V80.84H319.11V100.55H312.63L312.62 100.54Z" fill="#606060"/>
<path d="M340.69 101.15C338.26 101.15 336.07 100.59 334.13 99.48C332.19 98.36 330.65 96.82 329.52 94.84C328.39 92.86 327.82 90.58 327.82 87.98C327.82 85.38 328.39 83.09 329.54 81.12C330.69 79.14 332.23 77.6 334.17 76.48C336.11 75.37 338.3 74.81 340.73 74.81C343.16 74.81 345.3 75.37 347.24 76.48C349.18 77.6 350.72 79.14 351.85 81.12C352.98 83.1 353.55 85.38 353.55 87.98C353.55 90.58 352.98 92.87 351.85 94.84C350.72 96.81 349.17 98.36 347.22 99.48C345.26 100.59 343.08 101.15 340.68 101.15H340.69ZM340.69 95.53C342.38 95.53 343.85 94.9 345.1 93.63C346.35 92.36 346.97 90.48 346.97 87.98C346.97 85.48 346.35 83.6 345.1 82.33C343.85 81.06 342.4 80.43 340.74 80.43C339.08 80.43 337.54 81.06 336.31 82.33C335.08 83.6 334.46 85.48 334.46 87.98C334.46 90.48 335.08 92.36 336.31 93.63C337.54 94.9 339 95.53 340.69 95.53Z" fill="#606060"/>
<path d="M359.33 100.54V75.41H365.11L365.72 80.12C366.63 78.5 367.87 77.21 369.44 76.24C371.01 75.27 372.86 74.8 374.99 74.8V81.64H373.17C371.75 81.64 370.48 81.86 369.37 82.3C368.26 82.74 367.39 83.5 366.76 84.58C366.14 85.66 365.82 87.16 365.82 89.09V100.54H359.34H359.33Z" fill="#606060"/>
<path d="M389.42 93.04C388.2 93.04 387.07 92.91 386.03 92.63L384.16 94.5C384.73 94.8 385.51 95.06 386.49 95.26C387.47 95.46 389.06 95.67 391.25 95.87C394.59 96.17 397.03 96.97 398.54 98.25C400.05 99.53 400.82 101.31 400.82 103.57C400.82 105.06 400.41 106.47 399.6 107.8C398.79 109.13 397.54 110.21 395.85 111.04C394.16 111.87 392 112.28 389.37 112.28C385.79 112.28 382.9 111.61 380.71 110.28C378.51 108.95 377.42 106.94 377.42 104.28C377.42 102.02 378.52 100.06 380.71 98.4C380.03 98.1 379.45 97.78 378.96 97.44C378.47 97.1 378.04 96.75 377.67 96.38V95.21L382.08 90.55C380.12 88.83 379.14 86.62 379.14 83.91C379.14 82.22 379.55 80.69 380.38 79.3C381.21 77.92 382.38 76.82 383.9 76.01C385.42 75.2 387.26 74.79 389.42 74.79C390.84 74.79 392.16 74.99 393.37 75.4H402.89V79.35L398.58 79.65C399.25 80.93 399.59 82.35 399.59 83.91C399.59 85.6 399.18 87.14 398.37 88.52C397.56 89.9 396.39 91 394.85 91.81C393.31 92.62 391.5 93.03 389.4 93.03L389.42 93.04ZM383.34 103.63C383.34 104.88 383.92 105.82 385.09 106.44C386.26 107.06 387.68 107.38 389.37 107.38C391.06 107.38 392.31 107.05 393.32 106.39C394.33 105.73 394.84 104.85 394.84 103.73C394.84 102.82 394.51 102.06 393.85 101.45C393.19 100.84 391.88 100.47 389.92 100.34C388.54 100.24 387.25 100.09 386.07 99.88C385.09 100.42 384.39 101.01 383.97 101.65C383.55 102.29 383.34 102.95 383.34 103.63ZM389.42 88.08C390.74 88.08 391.83 87.73 392.69 87.02C393.55 86.31 393.98 85.3 393.98 83.98C393.98 82.66 393.55 81.65 392.69 80.94C391.83 80.23 390.74 79.88 389.42 79.88C388.04 79.88 386.92 80.23 386.08 80.94C385.24 81.65 384.81 82.66 384.81 83.98C384.81 85.3 385.23 86.31 386.08 87.02C386.92 87.73 388.04 88.08 389.42 88.08Z" fill="#606060"/>
<path d="M418.8 101.15C416.27 101.15 414.02 100.61 412.06 99.53C410.1 98.45 408.56 96.93 407.45 94.97C406.33 93.01 405.78 90.75 405.78 88.18C405.78 85.61 406.33 83.27 407.43 81.24C408.53 79.21 410.05 77.63 411.99 76.5C413.93 75.37 416.22 74.8 418.85 74.8C421.31 74.8 423.49 75.34 425.39 76.42C427.29 77.5 428.76 78.98 429.82 80.85C430.88 82.72 431.42 84.81 431.42 87.11C431.42 87.48 431.42 87.87 431.39 88.28C431.36 88.69 431.35 89.11 431.31 89.55H412.21C412.34 91.51 413.03 93.05 414.26 94.16C415.49 95.27 416.99 95.83 418.74 95.83C420.06 95.83 421.16 95.53 422.06 94.94C422.96 94.35 423.62 93.58 424.06 92.64H430.64C430.17 94.23 429.38 95.67 428.28 96.97C427.18 98.27 425.83 99.29 424.23 100.03C422.63 100.77 420.81 101.14 418.78 101.14L418.8 101.15ZM418.85 80.08C417.26 80.08 415.86 80.53 414.65 81.42C413.43 82.32 412.66 83.67 412.32 85.5H424.83C424.73 83.85 424.12 82.53 423.01 81.55C421.9 80.57 420.51 80.08 418.86 80.08H418.85Z" fill="#606060"/>
<path d="M432.06 72.38V68.43H430.84V67.34H434.68V68.43H433.43V72.38H432.07H432.06ZM435.42 72.38V67.34H437.23L438.55 70.77L439.99 67.34H441.67V72.38H440.41L440.38 69.08L438.99 72.38H438.04L436.65 68.96V72.38H435.43H435.42Z" fill="#606060"/>
</g>
<defs>
<clipPath id="clip0_1320_4994">
<rect width="441.67" height="112.29" fill="white"/>
</clipPath>
</defs>
</svg>
