<svg width="193" height="26" viewBox="0 0 193 26" fill="none" xmlns="http://www.w3.org/2000/svg">
<g clip-path="url(#clip0_1278_6384)">
<path d="M82.8159 19.8534V4.15845H86.1806L91.1185 14.1127L95.9908 4.15845H99.3555V19.8534H96.5239V9.02273L92.2066 17.6094H89.9692L85.6519 9.02273V19.8534H82.8203H82.8159Z" fill="#616060"/>
<path d="M103.826 7.00884C103.31 7.00884 102.886 6.85392 102.554 6.53967C102.222 6.22542 102.056 5.8315 102.056 5.35348C102.056 4.87546 102.222 4.48154 102.554 4.17613C102.886 3.87073 103.31 3.71582 103.826 3.71582C104.342 3.71582 104.765 3.87073 105.098 4.17613C105.43 4.48154 105.596 4.87546 105.596 5.35348C105.596 5.8315 105.43 6.22984 105.098 6.53967C104.765 6.85392 104.342 7.00884 103.826 7.00884ZM102.41 19.8578V8.73502H105.242V19.8578H102.41Z" fill="#606060"/>
<path d="M108.209 19.8534V8.73059H110.708L110.931 10.6117C111.272 9.9522 111.761 9.42992 112.404 9.04042C113.046 8.65092 113.802 8.45618 114.672 8.45618C116.031 8.45618 117.084 8.88993 117.835 9.75745C118.587 10.625 118.963 11.8953 118.963 13.5683V19.8445H116.131V13.8339C116.131 12.8778 115.939 12.1431 115.554 11.6385C115.17 11.1295 114.571 10.8773 113.763 10.8773C112.954 10.8773 112.312 11.1605 111.805 11.7271C111.294 12.2936 111.04 13.0859 111.04 14.1039V19.8445H108.209V19.8534Z" fill="#606060"/>
<path d="M126.715 20.1234C125.684 20.1234 124.757 19.8711 123.949 19.3621C123.136 18.8531 122.494 18.1582 122.022 17.2774C121.55 16.3966 121.314 15.3963 121.314 14.2721C121.314 13.1478 121.55 12.152 122.022 11.28C122.494 10.4037 123.136 9.71761 123.949 9.21746C124.761 8.71731 125.684 8.46502 126.715 8.46502C127.541 8.46502 128.266 8.61994 128.882 8.93419C129.503 9.24844 130.005 9.69105 130.385 10.2576V3.7114H133.217V19.8534H130.696L130.385 18.26C130.031 18.7513 129.564 19.185 128.978 19.5613C128.393 19.9375 127.641 20.1234 126.71 20.1234H126.715ZM127.313 17.6138C128.227 17.6138 128.978 17.3039 129.559 16.6843C130.141 16.0646 130.433 15.2679 130.433 14.2942C130.433 13.3205 130.141 12.5282 129.559 11.9041C128.978 11.2844 128.227 10.9746 127.313 10.9746C126.4 10.9746 125.666 11.28 125.076 11.8953C124.486 12.5105 124.189 13.2983 124.189 14.2721C124.189 15.2458 124.482 16.0425 125.076 16.671C125.666 17.2995 126.413 17.6138 127.313 17.6138Z" fill="#606060"/>
<path d="M136.608 19.8534V11.1295H135.1V8.73059H136.608V7.42932C136.608 6.08378 136.944 5.12775 137.613 4.56121C138.286 3.99467 139.195 3.7114 140.348 3.7114H141.568V6.1546H140.794C140.309 6.1546 139.96 6.25198 139.754 6.44672C139.549 6.64147 139.444 6.969 139.444 7.43374V8.73502H141.812V11.134H139.444V19.8578H136.612L136.608 19.8534Z" fill="#606060"/>
<path d="M148.874 20.1234C147.812 20.1234 146.855 19.8755 146.007 19.3842C145.16 18.8885 144.487 18.2069 143.993 17.3305C143.499 16.4541 143.25 15.445 143.25 14.2942C143.25 13.1434 143.499 12.1298 144.002 11.2579C144.504 10.3815 145.177 9.69991 146.025 9.20419C146.873 8.71289 147.83 8.46503 148.891 8.46503C149.953 8.46503 150.888 8.71289 151.736 9.20419C152.584 9.69991 153.257 10.3815 153.751 11.2579C154.244 12.1343 154.493 13.1434 154.493 14.2942C154.493 15.445 154.244 16.4586 153.751 17.3305C153.257 18.2024 152.579 18.8885 151.727 19.3842C150.871 19.8755 149.918 20.1234 148.87 20.1234H148.874ZM148.874 17.6359C149.612 17.6359 150.255 17.3571 150.801 16.7949C151.347 16.2328 151.618 15.4007 151.618 14.2942C151.618 13.1877 151.347 12.3556 150.801 11.7935C150.255 11.2313 149.621 10.9525 148.896 10.9525C148.17 10.9525 147.497 11.2313 146.96 11.7935C146.422 12.3556 146.152 13.1877 146.152 14.2942C146.152 15.4007 146.422 16.2328 146.96 16.7949C147.497 17.3571 148.135 17.6359 148.874 17.6359Z" fill="#606060"/>
<path d="M157.019 19.8534V8.73059H159.545L159.812 10.8153C160.209 10.0983 160.751 9.52729 161.437 9.09796C162.123 8.66863 162.932 8.4606 163.862 8.4606V11.4881H163.067C162.447 11.4881 161.892 11.5854 161.407 11.7802C160.922 11.9749 160.541 12.3113 160.266 12.7893C159.995 13.2673 159.855 13.9313 159.855 14.7855V19.8534H157.024H157.019Z" fill="#606060"/>
<path d="M170.168 16.5382C169.635 16.5382 169.141 16.4807 168.686 16.3568L167.869 17.1844C168.118 17.3172 168.459 17.4323 168.887 17.5208C169.316 17.6093 170.01 17.7023 170.967 17.7908C172.427 17.9236 173.493 18.2777 174.153 18.8442C174.813 19.4108 175.149 20.1986 175.149 21.1989C175.149 21.8584 174.97 22.4825 174.616 23.0712C174.262 23.6598 173.716 24.1378 172.978 24.5052C172.239 24.8726 171.295 25.054 170.146 25.054C168.582 25.054 167.319 24.7575 166.362 24.1688C165.4 23.5802 164.924 22.6905 164.924 21.5132C164.924 20.5129 165.405 19.6453 166.362 18.9106C166.065 18.7778 165.811 18.6362 165.597 18.4857C165.383 18.3352 165.195 18.1803 165.033 18.0165V17.4987L166.96 15.4361C166.104 14.6748 165.676 13.6967 165.676 12.4972C165.676 11.7492 165.855 11.072 166.218 10.4568C166.58 9.84597 167.091 9.3591 167.756 9.00059C168.42 8.64207 169.224 8.4606 170.168 8.4606C170.788 8.4606 171.365 8.54912 171.894 8.73059H176.054V10.4789L174.171 10.6117C174.463 11.1782 174.612 11.8067 174.612 12.4972C174.612 13.2452 174.433 13.9268 174.079 14.5376C173.725 15.1484 173.214 15.6353 172.541 15.9938C171.868 16.3523 171.077 16.5338 170.159 16.5338L170.168 16.5382ZM167.511 21.2255C167.511 21.7787 167.764 22.1948 168.276 22.4692C168.787 22.7436 169.407 22.8853 170.146 22.8853C170.884 22.8853 171.431 22.7392 171.872 22.4471C172.313 22.1549 172.536 21.7655 172.536 21.2697C172.536 20.867 172.392 20.5306 172.104 20.2606C171.815 19.9906 171.243 19.8268 170.386 19.7693C169.783 19.725 169.22 19.6586 168.704 19.5657C168.276 19.8047 167.97 20.0658 167.786 20.3491C167.603 20.6324 167.511 20.9245 167.511 21.2255ZM170.168 14.3429C170.745 14.3429 171.221 14.188 171.597 13.8737C171.973 13.5595 172.16 13.1124 172.16 12.5282C172.16 11.9439 171.973 11.4969 171.597 11.1827C171.221 10.8684 170.745 10.7135 170.168 10.7135C169.565 10.7135 169.075 10.8684 168.708 11.1827C168.341 11.4969 168.153 11.9439 168.153 12.5282C168.153 13.1124 168.337 13.5595 168.708 13.8737C169.075 14.188 169.565 14.3429 170.168 14.3429Z" fill="#606060"/>
<path d="M183.006 20.1234C181.901 20.1234 180.918 19.8844 180.061 19.4063C179.205 18.9283 178.532 18.2556 178.047 17.388C177.557 16.5205 177.317 15.5202 177.317 14.3827C177.317 13.2452 177.557 12.2095 178.038 11.311C178.519 10.4125 179.183 9.71319 180.031 9.21304C180.878 8.71289 181.879 8.4606 183.028 8.4606C184.103 8.4606 185.056 8.69961 185.886 9.17763C186.716 9.65565 187.359 10.3107 187.822 11.1384C188.285 11.9661 188.521 12.8911 188.521 13.9091C188.521 14.0729 188.521 14.2455 188.508 14.427C188.495 14.6085 188.49 14.7943 188.473 14.9891H180.127C180.183 15.8566 180.485 16.5382 181.022 17.0295C181.56 17.5208 182.215 17.7687 182.98 17.7687C183.557 17.7687 184.038 17.6359 184.431 17.3748C184.824 17.1136 185.113 16.7728 185.305 16.3568H188.18C187.975 17.0605 187.63 17.6979 187.149 18.2733C186.668 18.8487 186.078 19.3001 185.379 19.6276C184.68 19.9552 183.885 20.1189 182.998 20.1189L183.006 20.1234ZM183.028 10.7976C182.333 10.7976 181.722 10.9968 181.193 11.3907C180.66 11.789 180.323 12.3866 180.175 13.1965H185.641C185.598 12.4662 185.331 11.882 184.846 11.4482C184.361 11.0145 183.754 10.7976 183.033 10.7976H183.028Z" fill="#606060"/>
<path d="M188.801 7.3939V5.64559H188.268V5.16315H189.946V5.64559H189.399V7.3939H188.805H188.801ZM190.269 7.3939V5.16315H191.06L191.637 6.6813L192.266 5.16315H193V7.3939H192.449L192.436 5.93329L191.829 7.3939H191.414L190.806 5.88018V7.3939H190.273H190.269Z" fill="#606060"/>
<path d="M42.5835 0.228058H28.5303V23.2305H42.5835V0.228058Z" fill="#26C666"/>
<path d="M0 23.2305H19.8738L42.5835 0.228058H22.7097L0 23.2305Z" fill="#26C666"/>
<path d="M59.4902 14.4048C59.5732 9.19533 56.9164 8.03569 53.9231 4.62317L35.5569 23.2261H55.4306L64.1396 14.4048H59.4902Z" fill="#26C666"/>
<path fill-rule="evenodd" clip-rule="evenodd" d="M59.4553 14.4048V16.5117V17.9502V19.9021V23.2305H73.3032V19.9021V17.9502V16.5117V14.4048H59.4553Z" fill="#26C666"/>
</g>
<defs>
<clipPath id="clip0_1278_6384">
<rect width="193" height="24.8304" fill="white" transform="translate(0 0.228058)"/>
</clipPath>
</defs>
</svg>
