<svg width="107" height="39" viewBox="0 0 107 39" fill="none" xmlns="http://www.w3.org/2000/svg">
<g id="Logotipo">
<g id="Group">
<g id="Group_2">
<path id="Vector" d="M34.2636 29.0956V15.2373H52.4671V18.0219H37.5144V21.5189H52.0591V24.0962H37.5144V29.0956H34.2636Z" fill="#202128"/>
<path id="Vector_2" d="M52.8362 15.2373H56.5145L61.5138 26.1296L67.1802 15.2373H71.0786L76.8097 26.1296L81.7443 15.2373H85.4032L78.9209 29.0956H74.7569L69.1294 18.3457L63.5019 29.0956H59.338L52.8362 15.2373Z" fill="#202128"/>
<path id="Vector_3" d="M84.7361 22.1663C84.7361 17.1864 88.1683 14.9717 95.8681 14.9717C103.568 14.9717 107 17.1864 107 22.1663C107 27.1462 103.568 29.361 95.8681 29.361C88.1683 29.361 84.7361 27.1462 84.7361 22.1663ZM103.71 22.1663C103.71 19.0579 101.819 17.7757 95.8681 17.7757C89.9168 17.7757 87.987 19.0579 87.987 22.1663C87.987 25.2747 89.9168 26.5569 95.8681 26.5569C101.819 26.5569 103.71 25.2747 103.71 22.1663Z" fill="#202128"/>
</g>
<g id="Group_3">
<path id="Vector_4" d="M74.9382 30.9473V33.0066H74.6598V30.9473H74.9382ZM75.7477 32.1323H74.6727V31.8798H75.7477V32.1323ZM75.9031 31.2063H74.6792V30.9473H75.9031V31.2063Z" fill="#202128"/>
<path id="Vector_5" d="M77.1983 33.0066H76.9198V30.9473H77.6969C77.9171 30.9473 78.092 30.9991 78.215 31.1092C78.338 31.2193 78.4028 31.3682 78.4028 31.5625C78.4028 31.7049 78.3704 31.828 78.2992 31.9251C78.2279 32.0223 78.1308 32.0935 78.0078 32.1323L78.4287 33.0001H78.1179L77.7358 32.1841H77.2112V33.0001L77.1983 33.0066ZM77.1983 31.1998V31.9445H77.6969C77.8264 31.9445 77.9236 31.9122 77.9948 31.8474C78.0661 31.7826 78.0984 31.692 78.0984 31.5689C78.0984 31.4459 78.0596 31.3552 77.9883 31.297C77.9171 31.2387 77.8135 31.1998 77.6905 31.1998H77.1918H77.1983Z" fill="#202128"/>
<path id="Vector_6" d="M79.549 33.0066H79.2576L80.0088 30.9473H80.3196L81.0773 33.0066H80.7859L80.5981 32.495H79.7303L79.549 33.0066ZM80.1318 31.3941L79.821 32.2554H80.5204L80.2031 31.3941C80.2031 31.3941 80.1901 31.3488 80.1836 31.3293C80.1772 31.3099 80.1707 31.2905 80.1707 31.2711C80.1707 31.284 80.1642 31.3034 80.1577 31.3293C80.1577 31.3488 80.1448 31.3747 80.1383 31.3941H80.1318Z" fill="#202128"/>
<path id="Vector_7" d="M82.3077 33.0066H82.0357V30.9473H82.3077L83.0136 32.6763L83.7194 30.9473H83.9979V33.0066H83.7259V31.9445C83.7259 31.8733 83.7259 31.815 83.7259 31.7697C83.7259 31.7179 83.7259 31.679 83.7259 31.6402C83.7259 31.6013 83.7259 31.5625 83.7324 31.5301L83.1301 33.0131H82.8711L82.2753 31.5366C82.2818 31.5884 82.2883 31.6596 82.2883 31.7632C82.2883 31.8668 82.2883 31.9899 82.2883 32.1323V33.0131L82.3077 33.0066Z" fill="#202128"/>
<path id="Vector_8" d="M86.4199 33.0066H85.1635V30.9473H86.4199V31.2063H85.3125L85.442 31.0962V31.8474H86.3227V32.0935H85.442V32.8641L85.3125 32.7475H86.4199V33.0066Z" fill="#202128"/>
<path id="Vector_9" d="M87.9223 33.0066L87.3135 30.9473H87.6049L87.9805 32.2036C87.9935 32.2554 88.0129 32.3137 88.0259 32.3719C88.0388 32.4302 88.0518 32.5015 88.0712 32.5792C88.0906 32.495 88.1036 32.4238 88.123 32.3719C88.1424 32.3201 88.1554 32.2619 88.1683 32.2101L88.5569 30.9537H88.8612L89.2498 32.2101C89.2692 32.2683 89.2822 32.3201 89.2951 32.3784C89.3081 32.4367 89.3275 32.5015 89.3405 32.5792C89.3599 32.4885 89.3728 32.4173 89.3923 32.3655C89.4117 32.3137 89.4182 32.2554 89.4311 32.2101L89.8067 30.9473H90.0916L89.47 33.0066H89.2045L88.7058 31.3811L88.2007 33.0066H87.9287H87.9223Z" fill="#202128"/>
<path id="Vector_10" d="M92.8374 31.9709C92.8374 32.1781 92.7921 32.3659 92.7079 32.5213C92.6237 32.6832 92.5071 32.8062 92.3582 32.8969C92.2092 32.9876 92.0344 33.0329 91.8401 33.0329C91.6459 33.0329 91.4775 32.9876 91.3285 32.8969C91.1796 32.8062 91.063 32.6832 90.9788 32.5213C90.8947 32.3594 90.8558 32.1781 90.8558 31.9644C90.8558 31.7507 90.9011 31.5694 90.9853 31.4139C91.0695 31.252 91.1861 31.129 91.335 31.0383C91.484 30.9477 91.6523 30.9023 91.8466 30.9023C92.0409 30.9023 92.2157 30.9477 92.3647 31.0383C92.5136 31.129 92.6302 31.252 92.7144 31.4139C92.7985 31.5758 92.8439 31.7572 92.8439 31.9644L92.8374 31.9709ZM92.546 31.9709C92.546 31.809 92.5201 31.673 92.4618 31.5499C92.4035 31.4334 92.3258 31.3362 92.2157 31.2715C92.1121 31.2067 91.9891 31.1743 91.8466 31.1743C91.7041 31.1743 91.5876 31.2067 91.484 31.2715C91.3803 31.3362 91.2962 31.4269 91.2379 31.5499C91.1796 31.6665 91.1537 31.809 91.1537 31.9709C91.1537 32.1327 91.1796 32.2687 91.2379 32.3918C91.2962 32.5083 91.3739 32.6055 91.484 32.6702C91.5876 32.735 91.7106 32.7674 91.8466 32.7674C91.9826 32.7674 92.1121 32.735 92.2157 32.6638C92.3193 32.599 92.4035 32.5019 92.4618 32.3853C92.5201 32.2687 92.546 32.1263 92.546 31.9709Z" fill="#202128"/>
<path id="Vector_11" d="M94.1585 33.0066H93.88V30.9473H94.6571C94.8773 30.9473 95.0521 30.9991 95.1752 31.1092C95.2982 31.2193 95.363 31.3682 95.363 31.5625C95.363 31.7049 95.3306 31.828 95.2594 31.9251C95.1881 32.0223 95.091 32.0935 94.9679 32.1323L95.3889 33.0001H95.078L94.696 32.1841H94.1714V33.0001L94.1585 33.0066ZM94.1585 31.1998V31.9445H94.6571C94.7866 31.9445 94.8838 31.9122 94.955 31.8474C95.0262 31.7826 95.0586 31.692 95.0586 31.5689C95.0586 31.4459 95.0197 31.3552 94.9485 31.297C94.8773 31.2387 94.7737 31.1998 94.6506 31.1998H94.152H94.1585Z" fill="#202128"/>
<path id="Vector_12" d="M96.7035 30.9473V33.0066H96.425V30.9473H96.7035ZM97.9533 30.9473L96.6452 32.6051V32.1841L97.6166 30.9473H97.9468H97.9533ZM97.0661 32.0352L97.2474 31.7956L97.9663 33.0066H97.6425L97.0661 32.0352Z" fill="#202128"/>
<path id="Vector_13" d="M100.563 31.5955L101.042 30.9414H101.366L100.777 31.725L100.712 31.7056C100.77 31.6667 100.822 31.6343 100.887 31.6149C100.945 31.5955 101.01 31.5825 101.068 31.5825C101.211 31.5825 101.334 31.6149 101.444 31.6732C101.554 31.7315 101.632 31.8221 101.696 31.9257C101.755 32.0358 101.787 32.1589 101.787 32.2949C101.787 32.4373 101.755 32.5668 101.69 32.6769C101.625 32.787 101.534 32.8777 101.424 32.936C101.314 33.0007 101.185 33.0331 101.042 33.0331C100.9 33.0331 100.77 33.0007 100.654 32.936C100.537 32.8712 100.446 32.7805 100.382 32.6705C100.317 32.5604 100.285 32.4308 100.285 32.2949C100.285 32.2107 100.291 32.1394 100.31 32.0682C100.33 31.997 100.356 31.9257 100.401 31.848C100.44 31.7703 100.498 31.6861 100.57 31.589L100.563 31.5955ZM100.563 32.3013C100.563 32.3985 100.582 32.4827 100.621 32.5539C100.66 32.6251 100.718 32.6834 100.79 32.7223C100.861 32.7611 100.945 32.7805 101.036 32.7805C101.126 32.7805 101.211 32.7611 101.275 32.7223C101.34 32.6834 101.398 32.6251 101.444 32.5539C101.489 32.4827 101.502 32.3985 101.502 32.3013C101.502 32.2042 101.483 32.12 101.444 32.0488C101.405 31.9775 101.347 31.9193 101.275 31.8804C101.204 31.8415 101.126 31.8221 101.036 31.8221C100.945 31.8221 100.861 31.8415 100.79 31.8804C100.718 31.9193 100.66 31.9775 100.621 32.0488C100.582 32.12 100.563 32.2042 100.563 32.3013Z" fill="#202128"/>
<path id="Vector_14" d="M102.914 33.0392C102.855 33.0392 102.81 33.0198 102.771 32.9809C102.732 32.9421 102.713 32.8967 102.713 32.8384C102.713 32.7802 102.732 32.7348 102.771 32.696C102.81 32.6571 102.862 32.6377 102.914 32.6377C102.966 32.6377 103.017 32.6571 103.056 32.696C103.095 32.7348 103.115 32.7802 103.115 32.8384C103.115 32.8967 103.095 32.9421 103.056 32.9809C103.017 33.0198 102.966 33.0392 102.914 33.0392Z" fill="#202128"/>
<path id="Vector_15" d="M104.015 31.9777C104.015 31.764 104.047 31.5762 104.118 31.4208C104.19 31.2654 104.287 31.1358 104.41 31.0452C104.539 30.9545 104.688 30.9092 104.863 30.9092C105.038 30.9092 105.187 30.9545 105.31 31.0452C105.439 31.1358 105.536 31.2589 105.601 31.4208C105.666 31.5827 105.705 31.7705 105.705 31.9777C105.705 32.1849 105.672 32.3792 105.601 32.5411C105.53 32.703 105.439 32.826 105.31 32.9102C105.18 32.9944 105.031 33.0397 104.857 33.0397C104.682 33.0397 104.526 32.9944 104.403 32.9102C104.274 32.8195 104.177 32.6965 104.112 32.5411C104.047 32.3857 104.008 32.1914 104.008 31.9777H104.015ZM104.293 31.9777C104.293 32.1461 104.313 32.295 104.364 32.4116C104.41 32.5346 104.474 32.6253 104.559 32.69C104.643 32.7548 104.746 32.7872 104.869 32.7872C104.993 32.7872 105.09 32.7548 105.18 32.69C105.265 32.6253 105.329 32.5346 105.375 32.4116C105.42 32.2885 105.439 32.1461 105.439 31.9777C105.439 31.8093 105.42 31.6604 105.375 31.5373C105.329 31.4143 105.265 31.3236 105.18 31.2589C105.096 31.1941 104.993 31.1617 104.869 31.1617C104.746 31.1617 104.643 31.1941 104.559 31.2589C104.474 31.3236 104.41 31.4208 104.364 31.5373C104.319 31.6604 104.293 31.8093 104.293 31.9777Z" fill="#202128"/>
</g>
</g>
<path id="Logotipo_2" d="M22.0996 0H9.68748V6.96732C9.68748 8.73448 9.08201 9.71373 6.95166 9.71373H0.0112124V19.4275H6.95166C9.08201 19.4275 9.68748 20.418 9.68748 22.1739V26.3948C9.68748 28.1619 9.08201 29.1412 6.95166 29.1412H0V38.8549H9.67627V31.8876C9.67627 29.749 10.663 29.1412 12.4121 29.1412H19.3525V19.4275H12.4121C10.2817 19.4275 9.67627 18.437 9.67627 16.6811V12.4601C9.67627 10.3215 10.663 9.71373 12.4121 9.71373H26.5509V0H22.0996Z" fill="url(#paint0_linear_230_3311)"/>
</g>
<defs>
<linearGradient id="paint0_linear_230_3311" x1="28.0309" y1="1.12558" x2="2.1269" y2="31.4173" gradientUnits="userSpaceOnUse">
<stop stop-color="#7841B0"/>
<stop offset="1" stop-color="#DC2424"/>
</linearGradient>
</defs>
</svg>
