<svg width="462" height="142" viewBox="0 0 462 142" fill="none" xmlns="http://www.w3.org/2000/svg">
<path d="M175.688 101.848V47.4482H247.146V58.3791H188.449V72.1063H245.544V82.2237H188.449V101.848H175.688Z" fill="#202128"/>
<path d="M248.595 47.4482H263.034L282.658 90.2058L304.902 47.4482H320.205L342.702 90.2058L362.073 47.4482H376.435L350.989 101.848H334.644L312.553 59.6502L290.463 101.848H274.117L248.595 47.4482Z" fill="#202128"/>
<path d="M373.817 74.6486C373.817 55.1001 387.29 46.4062 417.515 46.4062C447.74 46.4062 461.213 55.1001 461.213 74.6486C461.213 94.1971 447.74 102.891 417.515 102.891C387.29 102.891 373.817 94.1971 373.817 74.6486ZM448.3 74.6486C448.3 62.4467 440.877 57.4134 417.515 57.4134C394.154 57.4134 386.578 62.4467 386.578 74.6486C386.578 86.8505 394.154 91.8838 417.515 91.8838C440.877 91.8838 448.3 86.8505 448.3 74.6486Z" fill="#202128"/>
<path d="M335.355 109.12V117.203H334.262V109.12H335.355ZM338.533 113.772H334.313V112.78H338.533V113.772ZM339.143 110.136H334.339V109.12H339.143V110.136Z" fill="#202128"/>
<path d="M344.227 117.203H343.134V109.12H346.185C347.049 109.12 347.735 109.323 348.218 109.755C348.701 110.187 348.956 110.772 348.956 111.535C348.956 112.094 348.828 112.577 348.549 112.958C348.269 113.339 347.888 113.619 347.405 113.772L349.057 117.178H347.837L346.337 113.975H344.278V117.178L344.227 117.203ZM344.227 110.111V113.034H346.185C346.693 113.034 347.074 112.907 347.354 112.653C347.634 112.399 347.761 112.043 347.761 111.56C347.761 111.077 347.608 110.721 347.329 110.492C347.049 110.264 346.642 110.111 346.159 110.111H344.202H344.227Z" fill="#202128"/>
<path d="M353.455 117.203H352.311L355.26 109.12H356.48L359.454 117.203H358.31L357.573 115.195H354.167L353.455 117.203ZM355.743 110.874L354.523 114.255H357.268L356.023 110.874C356.023 110.874 355.972 110.696 355.946 110.619C355.921 110.543 355.895 110.467 355.895 110.391C355.895 110.442 355.87 110.518 355.845 110.619C355.845 110.696 355.794 110.797 355.768 110.874H355.743Z" fill="#202128"/>
<path d="M364.284 117.203H363.217V109.12H364.284L367.055 115.907L369.826 109.12H370.919V117.203H369.851V113.034C369.851 112.755 369.851 112.526 369.851 112.348C369.851 112.145 369.851 111.992 369.851 111.84C369.851 111.687 369.851 111.535 369.877 111.407L367.513 117.229H366.496L364.157 111.433C364.183 111.636 364.208 111.916 364.208 112.323C364.208 112.729 364.208 113.212 364.208 113.772V117.229L364.284 117.203Z" fill="#202128"/>
<path d="M380.426 117.203H375.495V109.12H380.426V110.136H376.079L376.588 109.704V112.653H380.045V113.619H376.588V116.644L376.079 116.187H380.426V117.203Z" fill="#202128"/>
<path d="M386.324 117.203L383.934 109.12H385.078L386.553 114.051C386.604 114.255 386.68 114.483 386.731 114.712C386.781 114.941 386.832 115.221 386.909 115.526C386.985 115.195 387.036 114.916 387.112 114.712C387.188 114.509 387.239 114.28 387.29 114.077L388.815 109.145H390.01L391.535 114.077C391.611 114.305 391.662 114.509 391.713 114.738C391.764 114.966 391.84 115.221 391.891 115.526C391.967 115.17 392.018 114.89 392.094 114.687C392.171 114.483 392.196 114.255 392.247 114.077L393.721 109.12H394.84L392.399 117.203H391.357L389.4 110.823L387.417 117.203H386.349H386.324Z" fill="#202128"/>
<path d="M405.618 113.136C405.618 113.949 405.44 114.686 405.11 115.297C404.779 115.932 404.322 116.415 403.737 116.771C403.152 117.127 402.466 117.305 401.703 117.305C400.941 117.305 400.28 117.127 399.695 116.771C399.111 116.415 398.653 115.932 398.323 115.297C397.992 114.661 397.84 113.949 397.84 113.11C397.84 112.272 398.017 111.56 398.348 110.95C398.678 110.314 399.136 109.831 399.721 109.475C400.305 109.119 400.966 108.941 401.729 108.941C402.492 108.941 403.178 109.119 403.763 109.475C404.347 109.831 404.805 110.314 405.135 110.95C405.466 111.585 405.644 112.297 405.644 113.11L405.618 113.136ZM404.474 113.136C404.474 112.5 404.373 111.966 404.144 111.483C403.915 111.026 403.61 110.645 403.178 110.39C402.771 110.136 402.288 110.009 401.729 110.009C401.17 110.009 400.712 110.136 400.305 110.39C399.899 110.645 399.568 111 399.339 111.483C399.111 111.941 399.009 112.5 399.009 113.136C399.009 113.771 399.111 114.305 399.339 114.788C399.568 115.246 399.873 115.627 400.305 115.881C400.712 116.135 401.195 116.263 401.729 116.263C402.263 116.263 402.771 116.135 403.178 115.856C403.585 115.602 403.915 115.22 404.144 114.763C404.373 114.305 404.474 113.746 404.474 113.136Z" fill="#202128"/>
<path d="M410.804 117.203H409.711V109.12H412.761C413.626 109.12 414.312 109.323 414.795 109.755C415.278 110.187 415.532 110.772 415.532 111.535C415.532 112.094 415.405 112.577 415.126 112.958C414.846 113.339 414.465 113.619 413.982 113.772L415.634 117.178H414.414L412.914 113.975H410.855V117.178L410.804 117.203ZM410.804 110.111V113.034H412.761C413.27 113.034 413.651 112.907 413.931 112.653C414.21 112.399 414.337 112.043 414.337 111.56C414.337 111.077 414.185 110.721 413.905 110.492C413.626 110.264 413.219 110.111 412.736 110.111H410.779H410.804Z" fill="#202128"/>
<path d="M420.794 109.12V117.203H419.701V109.12H420.794ZM425.701 109.12L420.566 115.627V113.975L424.379 109.12H425.675H425.701ZM422.218 113.39L422.93 112.45L425.751 117.203H424.48L422.218 113.39Z" fill="#202128"/>
<path d="M435.945 111.661L437.826 109.094H439.097L436.784 112.17L436.53 112.094C436.759 111.941 436.962 111.814 437.216 111.738C437.445 111.661 437.699 111.611 437.928 111.611C438.487 111.611 438.97 111.738 439.402 111.967C439.834 112.195 440.139 112.551 440.394 112.958C440.622 113.39 440.75 113.873 440.75 114.407C440.75 114.966 440.622 115.475 440.368 115.907C440.114 116.339 439.758 116.695 439.326 116.924C438.894 117.178 438.385 117.305 437.826 117.305C437.267 117.305 436.759 117.178 436.301 116.924C435.843 116.669 435.487 116.313 435.233 115.881C434.979 115.449 434.852 114.941 434.852 114.407C434.852 114.076 434.877 113.797 434.954 113.517C435.03 113.238 435.132 112.958 435.31 112.653C435.462 112.348 435.691 112.017 435.971 111.636L435.945 111.661ZM435.945 114.432C435.945 114.814 436.021 115.144 436.174 115.424C436.326 115.703 436.555 115.932 436.835 116.085C437.114 116.237 437.445 116.313 437.801 116.313C438.157 116.313 438.487 116.237 438.741 116.085C438.996 115.932 439.224 115.703 439.402 115.424C439.58 115.144 439.631 114.814 439.631 114.432C439.631 114.051 439.555 113.721 439.402 113.441C439.25 113.161 439.021 112.933 438.741 112.78C438.462 112.627 438.157 112.551 437.801 112.551C437.445 112.551 437.114 112.627 436.835 112.78C436.555 112.933 436.326 113.161 436.174 113.441C436.021 113.721 435.945 114.051 435.945 114.432Z" fill="#202128"/>
<path d="M445.173 117.33C444.944 117.33 444.766 117.254 444.614 117.101C444.461 116.949 444.385 116.771 444.385 116.542C444.385 116.313 444.461 116.135 444.614 115.983C444.766 115.83 444.969 115.754 445.173 115.754C445.376 115.754 445.58 115.83 445.732 115.983C445.885 116.135 445.961 116.313 445.961 116.542C445.961 116.771 445.885 116.949 445.732 117.101C445.58 117.254 445.376 117.33 445.173 117.33Z" fill="#202128"/>
<path d="M449.494 113.161C449.494 112.322 449.621 111.585 449.901 110.975C450.181 110.365 450.562 109.857 451.045 109.501C451.553 109.145 452.138 108.967 452.824 108.967C453.511 108.967 454.095 109.145 454.578 109.501C455.087 109.857 455.468 110.34 455.722 110.975C455.977 111.611 456.129 112.348 456.129 113.161C456.129 113.975 456.002 114.737 455.722 115.373C455.443 116.008 455.087 116.491 454.578 116.822C454.07 117.152 453.485 117.33 452.799 117.33C452.113 117.33 451.503 117.152 451.02 116.822C450.511 116.466 450.13 115.983 449.876 115.373C449.621 114.763 449.469 114 449.469 113.161H449.494ZM450.587 113.161C450.587 113.822 450.664 114.407 450.867 114.864C451.045 115.347 451.299 115.703 451.63 115.957C451.96 116.212 452.367 116.339 452.85 116.339C453.333 116.339 453.714 116.212 454.07 115.957C454.4 115.703 454.655 115.347 454.833 114.864C455.011 114.381 455.087 113.822 455.087 113.161C455.087 112.5 455.011 111.916 454.833 111.433C454.655 110.95 454.4 110.594 454.07 110.34C453.74 110.085 453.333 109.958 452.85 109.958C452.367 109.958 451.96 110.085 451.63 110.34C451.299 110.594 451.045 110.975 450.867 111.433C450.689 111.916 450.587 112.5 450.587 113.161Z" fill="#202128"/>
<path d="M97.1638 0.34375H44.9752C20.4202 0.34375 0.514404 20.2495 0.514404 44.8045V96.9931C0.514404 121.548 20.4202 141.454 44.9752 141.454H97.1638C121.719 141.454 141.625 121.548 141.625 96.9931V44.8045C141.625 20.2495 121.719 0.34375 97.1638 0.34375Z" fill="#202128"/>
<path d="M91.2916 25.7644H63.151V41.4998C63.151 45.4908 61.7782 47.7024 56.9483 47.7024H41.2129V69.6405H56.9483C61.7782 69.6405 63.151 71.8775 63.151 75.8431V85.3759C63.151 89.3669 61.7782 91.5785 56.9483 91.5785H41.1875V113.517H63.1255V97.7812C63.1255 92.9512 65.3626 91.5785 69.3282 91.5785H85.0636V69.6405H69.3282C64.4983 69.6405 63.1255 67.4035 63.1255 63.4378V53.9051C63.1255 49.0752 65.3626 47.7024 69.3282 47.7024H101.384V25.7644H91.2916Z" fill="url(#paint0_linear_55_445)"/>
<defs>
<linearGradient id="paint0_linear_55_445" x1="104.739" y1="28.3065" x2="46.2716" y2="96.9423" gradientUnits="userSpaceOnUse">
<stop stop-color="#7841B0"/>
<stop offset="1" stop-color="#DC2424"/>
</linearGradient>
</defs>
</svg>
