<svg width="91" height="34" viewBox="0 0 91 34" fill="none" xmlns="http://www.w3.org/2000/svg">
<g id="Logo Pirm&#195;&#161;rio">
<g id="Group 112">
<g id="Group">
<g id="Group_2">
<path id="Vector" d="M29.1401 24.745V12.959H44.6216V15.3272H31.9049V18.3012H44.2747V20.4932H31.9049V24.745H29.1401Z" fill="white"/>
<path id="Vector_2" d="M44.9355 12.959H48.0638L52.3156 22.2226L57.1346 12.959H60.4501L65.3242 22.2226L69.5209 12.959H72.6326L67.1197 24.745H63.5784L58.7924 15.6026L54.0064 24.745H50.4651L44.9355 12.959Z" fill="white"/>
<path id="Vector_3" d="M72.0653 18.8522C72.0653 14.617 74.9843 12.7334 81.5326 12.7334C88.081 12.7334 91 14.617 91 18.8522C91 23.0874 88.081 24.971 81.5326 24.971C74.9843 24.971 72.0653 23.0874 72.0653 18.8522ZM88.2022 18.8522C88.2022 16.2086 86.594 15.1181 81.5326 15.1181C76.4713 15.1181 74.8301 16.2086 74.8301 18.8522C74.8301 21.4958 76.4713 22.5863 81.5326 22.5863C86.594 22.5863 88.2022 21.4958 88.2022 18.8522Z" fill="white"/>
</g>
<g id="Group_3">
<path id="Vector_4" d="M63.7326 26.3203V28.0717H63.4957V26.3203H63.7326ZM64.421 27.3282H63.5067V27.1134H64.421V27.3282ZM64.5532 26.5406H63.5123V26.3203H64.5532V26.5406Z" fill="white"/>
<path id="Vector_5" d="M65.6546 28.0717H65.4178V26.3203H66.0787C66.2659 26.3203 66.4146 26.3644 66.5193 26.458C66.6239 26.5516 66.679 26.6783 66.679 26.8435C66.679 26.9647 66.6515 27.0693 66.5909 27.1519C66.5303 27.2346 66.4477 27.2951 66.343 27.3282L66.701 28.0662H66.4367L66.1117 27.3722H65.6656V28.0662L65.6546 28.0717ZM65.6546 26.5351V27.1685H66.0787C66.1888 27.1685 66.2714 27.1409 66.332 27.0859C66.3926 27.0308 66.4201 26.9537 66.4201 26.849C66.4201 26.7444 66.3871 26.6673 66.3265 26.6177C66.2659 26.5681 66.1778 26.5351 66.0732 26.5351H65.6491H65.6546Z" fill="white"/>
<path id="Vector_6" d="M67.6539 28.0717H67.4061L68.0449 26.3203H68.3093L68.9537 28.0717H68.7058L68.5461 27.6366H67.8081L67.6539 28.0717ZM68.1496 26.7003L67.8852 27.4328H68.48L68.2102 26.7003C68.2102 26.7003 68.1991 26.6618 68.1936 26.6453C68.1881 26.6287 68.1826 26.6122 68.1826 26.5957C68.1826 26.6067 68.1771 26.6232 68.1716 26.6453C68.1716 26.6618 68.1606 26.6838 68.1551 26.7003H68.1496Z" fill="white"/>
<path id="Vector_7" d="M70 28.0717H69.7687V26.3203H70L70.6003 27.7908L71.2006 26.3203H71.4374V28.0717H71.2061V27.1685C71.2061 27.1079 71.2061 27.0583 71.2061 27.0198C71.2061 26.9757 71.2061 26.9427 71.2061 26.9096C71.2061 26.8766 71.2061 26.8435 71.2116 26.816L70.6994 28.0772H70.4791L69.9725 26.8215C69.978 26.8656 69.9835 26.9261 69.9835 27.0143C69.9835 27.1024 69.9835 27.207 69.9835 27.3282V28.0772L70 28.0717Z" fill="white"/>
<path id="Vector_8" d="M73.4972 28.0717H72.4288V26.3203H73.4972V26.5406H72.5554L72.6656 26.447V27.0859H73.4146V27.2951H72.6656V27.9505L72.5554 27.8514H73.4972V28.0717Z" fill="white"/>
<path id="Vector_9" d="M74.775 28.0717L74.2573 26.3203H74.5051L74.8245 27.3888C74.8355 27.4328 74.8521 27.4824 74.8631 27.532C74.8741 27.5815 74.8851 27.6421 74.9016 27.7082C74.9182 27.6366 74.9292 27.576 74.9457 27.532C74.9622 27.4879 74.9732 27.4383 74.9842 27.3943L75.3147 26.3258H75.5735L75.904 27.3943C75.9205 27.4438 75.9315 27.4879 75.9425 27.5375C75.9536 27.587 75.9701 27.6421 75.9811 27.7082C75.9976 27.6311 76.0086 27.5705 76.0252 27.5264C76.0417 27.4824 76.0472 27.4328 76.0582 27.3943L76.3776 26.3203H76.62L76.0913 28.0717H75.8654L75.4414 26.6893L75.0118 28.0717H74.7805H74.775Z" fill="white"/>
<path id="Vector_10" d="M78.9551 27.1905C78.9551 27.3667 78.9166 27.5264 78.845 27.6586C78.7734 27.7963 78.6742 27.9009 78.5476 27.978C78.4209 28.0551 78.2722 28.0937 78.107 28.0937C77.9418 28.0937 77.7986 28.0551 77.6719 27.978C77.5452 27.9009 77.4461 27.7963 77.3745 27.6586C77.3029 27.5209 77.2698 27.3667 77.2698 27.185C77.2698 27.0032 77.3084 26.849 77.38 26.7168C77.4516 26.5791 77.5507 26.4745 77.6774 26.3974C77.8041 26.3203 77.9473 26.2817 78.1125 26.2817C78.2777 26.2817 78.4264 26.3203 78.5531 26.3974C78.6798 26.4745 78.7789 26.5791 78.8505 26.7168C78.9221 26.8545 78.9606 27.0087 78.9606 27.185L78.9551 27.1905ZM78.7073 27.1905C78.7073 27.0528 78.6853 26.9371 78.6357 26.8325C78.5861 26.7334 78.52 26.6507 78.4264 26.5957C78.3383 26.5406 78.2336 26.5131 78.1125 26.5131C77.9913 26.5131 77.8922 26.5406 77.8041 26.5957C77.7159 26.6507 77.6443 26.7278 77.5948 26.8325C77.5452 26.9316 77.5232 27.0528 77.5232 27.1905C77.5232 27.3282 77.5452 27.4438 77.5948 27.5485C77.6443 27.6476 77.7104 27.7302 77.8041 27.7853C77.8922 27.8404 77.9968 27.8679 78.1125 27.8679C78.2281 27.8679 78.3383 27.8404 78.4264 27.7798C78.5145 27.7247 78.5861 27.6421 78.6357 27.5429C78.6853 27.4438 78.7073 27.3226 78.7073 27.1905Z" fill="white"/>
<path id="Vector_11" d="M80.0788 28.0717H79.842V26.3203H80.5029C80.6901 26.3203 80.8388 26.3644 80.9435 26.458C81.0481 26.5516 81.1032 26.6783 81.1032 26.8435C81.1032 26.9647 81.0757 27.0693 81.0151 27.1519C80.9545 27.2346 80.8719 27.2951 80.7672 27.3282L81.1252 28.0662H80.8609L80.5359 27.3722H80.0898V28.0662L80.0788 28.0717ZM80.0788 26.5351V27.1685H80.5029C80.613 27.1685 80.6956 27.1409 80.7562 27.0859C80.8168 27.0308 80.8443 26.9537 80.8443 26.849C80.8443 26.7444 80.8113 26.6673 80.7507 26.6177C80.6901 26.5681 80.602 26.5351 80.4974 26.5351H80.0733H80.0788Z" fill="white"/>
<path id="Vector_12" d="M82.2431 26.3203V28.0717H82.0063V26.3203H82.2431ZM83.3061 26.3203L82.1935 27.7302V27.3722L83.0197 26.3203H83.3005H83.3061ZM82.5515 27.2456L82.7057 27.0418L83.3171 28.0717H83.0417L82.5515 27.2456Z" fill="white"/>
<path id="Vector_13" d="M85.5256 26.8712L85.9331 26.3149H86.2085L85.7073 26.9813L85.6523 26.9648C85.7018 26.9318 85.7459 26.9042 85.8009 26.8877C85.8505 26.8712 85.9056 26.8602 85.9552 26.8602C86.0763 26.8602 86.181 26.8877 86.2746 26.9373C86.3682 26.9869 86.4343 27.064 86.4894 27.1521C86.5389 27.2457 86.5665 27.3503 86.5665 27.466C86.5665 27.5872 86.539 27.6973 86.4839 27.7909C86.4288 27.8846 86.3517 27.9617 86.2581 28.0112C86.1644 28.0663 86.0543 28.0939 85.9331 28.0939C85.812 28.0939 85.7018 28.0663 85.6027 28.0112C85.5035 27.9562 85.4264 27.8791 85.3714 27.7854C85.3163 27.6918 85.2888 27.5817 85.2888 27.466C85.2888 27.3944 85.2943 27.3338 85.3108 27.2732C85.3273 27.2127 85.3493 27.1521 85.3879 27.086C85.4209 27.0199 85.4705 26.9483 85.5311 26.8657L85.5256 26.8712ZM85.5256 27.4715C85.5256 27.5541 85.5421 27.6257 85.5751 27.6863C85.6082 27.7469 85.6578 27.7965 85.7183 27.8295C85.7789 27.8625 85.8505 27.8791 85.9276 27.8791C86.0047 27.8791 86.0763 27.8625 86.1314 27.8295C86.1865 27.7965 86.236 27.7469 86.2746 27.6863C86.3131 27.6257 86.3242 27.5541 86.3242 27.4715C86.3242 27.3889 86.3076 27.3173 86.2746 27.2567C86.2415 27.1961 86.192 27.1466 86.1314 27.1135C86.0708 27.0805 86.0047 27.064 85.9276 27.064C85.8505 27.064 85.7789 27.0805 85.7183 27.1135C85.6578 27.1466 85.6082 27.1961 85.5751 27.2567C85.5421 27.3173 85.5256 27.3889 85.5256 27.4715Z" fill="white"/>
<path id="Vector_14" d="M87.5249 28.0993C87.4754 28.0993 87.4368 28.0828 87.4038 28.0497C87.3707 28.0167 87.3542 27.9781 87.3542 27.9285C87.3542 27.879 87.3707 27.8404 87.4038 27.8074C87.4368 27.7743 87.4809 27.7578 87.5249 27.7578C87.569 27.7578 87.613 27.7743 87.6461 27.8074C87.6791 27.8404 87.6956 27.879 87.6956 27.9285C87.6956 27.9781 87.6791 28.0167 87.6461 28.0497C87.613 28.0828 87.569 28.0993 87.5249 28.0993Z" fill="white"/>
<path id="Vector_15" d="M88.4611 27.1963C88.4611 27.0146 88.4887 26.8549 88.5493 26.7227C88.6098 26.5905 88.6924 26.4804 88.7971 26.4033C88.9072 26.3261 89.0339 26.2876 89.1826 26.2876C89.3313 26.2876 89.458 26.3261 89.5626 26.4033C89.6728 26.4804 89.7554 26.585 89.8105 26.7227C89.8655 26.8604 89.8986 27.0201 89.8986 27.1963C89.8986 27.3726 89.8711 27.5378 89.8105 27.6755C89.7499 27.8132 89.6728 27.9178 89.5626 27.9894C89.4525 28.061 89.3258 28.0996 89.1771 28.0996C89.0284 28.0996 88.8962 28.061 88.7916 27.9894C88.6814 27.9123 88.5988 27.8077 88.5437 27.6755C88.4887 27.5433 88.4556 27.3781 88.4556 27.1963H88.4611ZM88.698 27.1963C88.698 27.3395 88.7145 27.4662 88.7585 27.5653C88.7971 27.67 88.8522 27.7471 88.9238 27.8022C88.9954 27.8572 89.0835 27.8848 89.1881 27.8848C89.2928 27.8848 89.3754 27.8572 89.4525 27.8022C89.5241 27.7471 89.5792 27.67 89.6177 27.5653C89.6563 27.4607 89.6728 27.3395 89.6728 27.1963C89.6728 27.0531 89.6563 26.9265 89.6177 26.8218C89.5792 26.7172 89.5241 26.6401 89.4525 26.585C89.3809 26.5299 89.2928 26.5024 89.1881 26.5024C89.0835 26.5024 88.9954 26.5299 88.9238 26.585C88.8522 26.6401 88.7971 26.7227 88.7585 26.8218C88.72 26.9265 88.698 27.0531 88.698 27.1963Z" fill="white"/>
</g>
</g>
<path id="Logotipo" d="M18.795 0H8.23888V5.92548C8.23888 7.42839 7.72395 8.26121 5.91216 8.26121H0.00953574V16.5224H5.91216C7.72395 16.5224 8.23888 17.3648 8.23888 18.8582V22.4479C8.23888 23.9508 7.72395 24.7836 5.91216 24.7836H0V33.0448H8.22935V27.1194C8.22935 25.3006 9.06849 24.7836 10.5561 24.7836H16.4587V16.5224H10.5561C8.74428 16.5224 8.22935 15.68 8.22935 14.1867V10.5969C8.22935 8.77813 9.06849 8.26121 10.5561 8.26121H22.5806V0H18.795Z" fill="white"/>
</g>
</g>
</svg>
