<svg width="174" height="54" viewBox="0 0 174 54" fill="none" xmlns="http://www.w3.org/2000/svg">
<g id="Camada_1" clip-path="url(#clip0_1128_254)">
<g id="Group">
<g id="Group_2">
<path id="Vector" d="M44.93 39.5911V47.4895H37.2545C36.7465 47.4895 36.3345 47.0779 36.3345 46.5671V40.539C36.3345 39.8976 35.8153 39.3783 35.1776 39.3783H12.4868C11.8463 39.3783 11.3299 38.8589 11.3299 38.2175V31.2472C11.3299 30.9407 11.4512 30.6455 11.6685 30.427L36.0693 5.99401C36.3543 5.7102 36.7409 5.54843 37.1416 5.54843H43.8407C44.6788 5.54843 45.3589 6.22957 45.3589 7.0668V30.5547H52.8538V6.98733C52.8538 3.13039 49.73 0 45.8781 0H11.739V19.086L24.4883 6.31471C25.205 5.59668 26.1758 5.19367 27.1916 5.19367H33.1035L10.1588 28.1735L6.28997 24.2967C6.12913 24.135 6.03883 23.9193 6.03883 23.6922V0.0624376C2.62999 0.522205 0 3.44542 0 6.98733V47.0155C0 50.8724 3.12382 54.0028 6.97569 54.0028H45.8753C49.7272 54.0028 52.851 50.8753 52.851 47.0155V39.5939H44.93V39.5911Z" fill="#FF2C2C"/>
<path id="Vector_2" d="M23.8335 30.1999H36.69V17.4655C36.721 17.4655 23.8335 30.1999 23.8335 30.1999Z" fill="#FF2C2C"/>
</g>
<path id="Vector_3" d="M61.2012 0.232727H60.6255V53.7673H61.2012V0.232727Z" fill="#FF2C2C"/>
</g>
<g id="Group_3">
<path id="Vector_4" d="M76.5068 36.6111C71.2976 36.6111 68.0581 33.1913 68.0581 27.5265C68.0581 21.8617 71.3258 18.439 76.4532 18.439C80.0398 18.439 82.7234 19.9346 83.7083 23.0083L80.3869 24.4245C79.8028 22.2874 78.5809 21.4587 76.614 21.4587C73.6906 21.4587 71.8592 23.5957 71.8592 27.5265C71.8592 31.4572 73.5326 33.5943 76.614 33.5943C78.5527 33.5943 80.0144 32.5782 80.5731 30.4667L83.9481 31.4827C82.8843 34.931 80.068 36.614 76.5068 36.614V36.6111Z" fill="#FF2C2C"/>
<path id="Vector_5" d="M99.5729 29.6635C99.5729 34.02 96.7821 36.6111 92.7694 36.6111C88.7567 36.6111 85.9658 34.02 85.9658 29.6635C85.9658 25.3071 88.7567 22.7159 92.7694 22.7159C96.7821 22.7159 99.5729 25.3071 99.5729 29.6635ZM89.6089 29.6635C89.6089 32.4959 90.7771 33.8866 92.7722 33.8866C94.7673 33.8866 95.9073 32.4959 95.9073 29.6635C95.9073 26.8311 94.739 25.4405 92.7722 25.4405C90.8053 25.4405 89.6089 26.8311 89.6089 29.6635Z" fill="#FF2C2C"/>
<path id="Vector_6" d="M106.215 32.2292C106.215 33.458 106.613 33.9121 107.598 33.9121C108.21 33.9121 108.501 33.8582 109.085 33.6454L108.766 36.0492C108.182 36.3954 107.172 36.6111 106.294 36.6111C103.718 36.6111 102.575 35.4078 102.575 32.6293V17.1306H106.215V32.2292Z" fill="#FF2C2C"/>
<path id="Vector_7" d="M114.692 32.2292C114.692 33.458 115.09 33.9121 116.075 33.9121C116.688 33.9121 116.978 33.8582 117.562 33.6454L117.243 36.0492C116.659 36.3954 115.649 36.6111 114.771 36.6111C112.195 36.6111 111.052 35.4078 111.052 32.6293V17.1306H114.692V32.2292Z" fill="#FF2C2C"/>
<path id="Vector_8" d="M119.157 19.1088C119.157 17.8004 119.902 17.1306 121.414 17.1306C122.927 17.1306 123.672 17.7976 123.672 19.1088C123.672 20.4199 122.927 21.0585 121.414 21.0585C119.902 21.0585 119.157 20.4171 119.157 19.1088ZM123.223 36.3444H119.583V22.9827H123.223V36.3444Z" fill="#FF2C2C"/>
<path id="Vector_9" d="M141.238 35.598L140.919 36.614C139.643 36.614 138.661 36.1854 136.985 34.3691C135.735 35.7597 134.036 36.614 131.725 36.614C128.511 36.614 126.412 34.8771 126.412 32.232C126.412 29.7742 127.82 28.1963 130.769 26.6722C129.2 24.5891 128.697 23.5986 128.697 22.2363C128.697 20.2042 130.08 18.4957 132.764 18.4957C134.97 18.4957 136.458 19.8041 136.458 21.8617C136.458 24.0527 135.261 25.3894 132.473 26.9929C133.004 27.6599 133.616 28.463 134.361 29.4251C135.396 30.7619 136.249 31.829 136.937 32.6577C137.894 31.0797 138.371 29.0221 138.266 26.7517L139.435 26.8311C139.488 29.1839 138.983 31.6417 137.682 33.4864C139.251 35.1978 140.072 35.598 141.243 35.598H141.238ZM136.243 33.5659C135.473 32.6833 134.57 31.5878 133.48 30.1716C132.656 29.13 131.965 28.2473 131.381 27.4726C128.884 28.8632 127.662 29.9587 127.662 32.1213C127.662 34.2839 129.496 35.5156 131.807 35.5156C133.746 35.5156 135.157 34.7948 136.246 33.5659H136.243ZM129.945 22.2363C129.945 23.3318 130.184 23.9477 131.832 26.1387C133.932 24.9098 135.286 23.9732 135.286 21.9951C135.286 20.5249 134.276 19.6423 132.682 19.6423C130.929 19.6423 129.945 20.7378 129.945 22.2335V22.2363Z" fill="#FF2C2C"/>
<path id="Vector_10" d="M150.937 36.6111C145.728 36.6111 142.488 33.1913 142.488 27.5265C142.488 21.8617 145.756 18.439 150.886 18.439C154.473 18.439 157.156 19.9346 158.141 23.0083L154.82 24.4245C154.236 22.2874 153.014 21.4587 151.047 21.4587C148.124 21.4587 146.292 23.5957 146.292 27.5265C146.292 31.4572 147.966 33.5943 151.047 33.5943C152.986 33.5943 154.447 32.5782 155.006 30.4667L158.381 31.4827C157.317 34.931 154.501 36.614 150.94 36.614L150.937 36.6111Z" fill="#FF2C2C"/>
<path id="Vector_11" d="M174 29.6635C174 34.02 171.209 36.6111 167.197 36.6111C163.184 36.6111 160.393 34.02 160.393 29.6635C160.393 25.3071 163.184 22.7159 167.197 22.7159C171.209 22.7159 174 25.3071 174 29.6635ZM164.036 29.6635C164.036 32.4959 165.204 33.8866 167.199 33.8866C169.195 33.8866 170.335 32.4959 170.335 29.6635C170.335 26.8311 169.166 25.4405 167.199 25.4405C165.233 25.4405 164.036 26.8311 164.036 29.6635Z" fill="#FF2C2C"/>
</g>
</g>
<defs>
<clipPath id="clip0_1128_254">
<rect width="174" height="54" fill="white"/>
</clipPath>
</defs>
</svg>
