<svg width="335" height="1080" viewBox="0 0 335 1080" fill="none" xmlns="http://www.w3.org/2000/svg">
<g opacity="0.05">
<g clip-path="url(#clip0_956_1085)">
<path d="M245.612 801.124L294.611 801.124L294.611 848.765C294.611 851.918 292.058 854.475 288.888 854.475L251.492 854.475C247.513 854.475 244.291 857.698 244.291 861.656L244.291 1002.5C244.291 1006.47 241.069 1009.68 237.09 1009.68L193.848 1009.68C191.947 1009.68 190.116 1008.92 188.76 1007.57L37.1851 856.122C35.4244 854.353 34.4208 851.953 34.4208 849.466L34.4208 807.885C34.4208 802.683 38.6464 798.462 43.8403 798.462L189.552 798.462L189.552 751.942L43.3473 751.942C19.42 751.942 -1.34924e-05 771.331 -1.24473e-05 795.239L-3.18494e-06 1007.14L118.404 1007.14L39.1746 928.004C34.7201 923.555 32.22 917.53 32.22 911.224L32.22 874.53L174.78 1016.95L150.73 1040.96C149.726 1041.96 148.388 1042.52 146.98 1042.52L0.387343 1042.52C3.23961 1063.68 21.3744 1080 43.3474 1080L291.67 1080C315.598 1080 335.018 1060.61 335.018 1036.7L335.018 795.257C335.018 771.348 315.615 751.959 291.67 751.959L245.629 751.959L245.629 801.124L245.612 801.124Z" fill="white"/>
<path d="M187.351 932.067L187.351 852.268L108.351 852.268C108.351 852.076 187.351 932.067 187.351 932.067Z" fill="white"/>
<path d="M1.4436 700.132L1.4436 703.705L333.556 703.705L333.556 700.132L1.4436 700.132Z" fill="white"/>
<path d="M227.125 605.13C227.125 637.463 205.909 657.57 170.766 657.57C135.623 657.57 114.39 637.288 114.39 605.463C114.39 583.201 123.669 566.544 142.736 560.431L151.522 581.047C138.264 584.672 133.123 592.256 133.123 604.464C133.123 622.61 146.381 633.977 170.766 633.977C195.151 633.977 208.409 623.591 208.409 604.464C208.409 592.432 202.106 583.359 189.006 579.891L195.31 558.943C216.702 565.546 227.142 583.026 227.142 605.13L227.125 605.13Z" fill="white"/>
<path d="M184.024 461.961C211.05 461.961 227.125 479.284 227.125 504.19C227.125 529.097 211.05 546.419 184.024 546.419C156.998 546.419 140.923 529.097 140.923 504.19C140.923 479.284 156.998 461.961 184.024 461.961ZM184.024 523.807C201.595 523.807 210.222 516.556 210.222 504.173C210.222 491.79 201.595 484.713 184.024 484.713C166.452 484.713 157.825 491.965 157.825 504.173C157.825 516.381 166.452 523.807 184.024 523.807Z" fill="white"/>
<path d="M199.94 420.731C207.564 420.731 210.381 418.261 210.381 412.148C210.381 408.348 210.046 406.543 208.726 402.918L223.639 404.897C225.787 408.523 227.125 414.793 227.125 420.24C227.125 436.232 219.659 443.325 202.423 443.325L106.273 443.325L106.273 420.731L199.94 420.731Z" fill="white"/>
<path d="M199.94 368.115C207.564 368.115 210.381 365.646 210.381 359.533C210.381 355.732 210.046 353.928 208.726 350.303L223.639 352.282C225.787 355.907 227.125 362.178 227.125 367.625C227.125 383.616 219.659 390.71 202.423 390.71L106.273 390.71L106.273 368.115L199.94 368.115Z" fill="white"/>
<path d="M118.545 340.406C110.428 340.406 106.273 335.782 106.273 326.394C106.273 317.006 110.411 312.382 118.545 312.382C126.679 312.382 130.641 317.006 130.641 326.394C130.641 335.782 126.662 340.406 118.545 340.406ZM225.47 315.167L225.47 337.761L142.578 337.762L142.578 315.167L225.47 315.167Z" fill="white"/>
<path d="M220.839 203.351L227.142 205.33C227.142 213.247 224.484 219.342 213.215 229.746C221.843 237.505 227.142 248.049 227.142 262.394C227.142 282.344 216.367 295.375 199.958 295.375C184.71 295.375 174.921 286.635 165.466 268.332C152.543 278.07 146.399 281.188 137.947 281.188C125.341 281.188 114.742 272.605 114.742 255.948C114.742 242.252 122.859 233.021 135.623 233.021C149.216 233.021 157.508 240.448 167.456 257.752C171.594 254.46 176.576 250.659 182.545 246.035C190.837 239.607 197.458 234.317 202.599 230.044C192.809 224.106 180.045 221.146 165.959 221.794L166.452 214.543C181.048 214.21 196.296 217.345 207.74 225.42C218.357 215.681 220.839 210.584 220.839 203.316L220.839 203.351ZM208.233 234.352C202.757 239.134 195.961 244.739 187.175 251.5C180.714 256.614 175.238 260.905 170.432 264.531C179.059 280.032 185.855 287.616 199.271 287.616C212.687 287.616 220.328 276.231 220.328 261.886C220.328 249.853 215.856 241.096 208.233 234.335L208.233 234.352ZM137.947 273.446C144.744 273.446 148.564 271.957 162.156 261.728C154.533 248.697 148.723 240.29 136.451 240.29C127.331 240.29 121.855 246.56 121.855 256.456C121.855 267.333 128.651 273.446 137.93 273.446L137.947 273.446Z" fill="white"/>
<path d="M227.125 143.151C227.125 175.484 205.909 195.591 170.766 195.591C135.623 195.591 114.39 175.309 114.39 143.466C114.39 121.205 123.669 104.548 142.736 98.435L151.522 119.05C138.264 122.676 133.123 130.26 133.123 142.468C133.123 160.614 146.381 171.981 170.766 171.981C195.151 171.981 208.409 161.594 208.409 142.468C208.409 130.435 202.106 121.362 189.006 117.894L195.31 96.9461C216.702 103.549 227.142 121.029 227.142 143.133L227.125 143.151Z" fill="white"/>
<path d="M184.024 0.000135445C211.05 0.000134264 227.125 17.3226 227.125 42.2291C227.125 67.1356 211.05 84.458 184.024 84.458C156.998 84.458 140.923 67.1356 140.923 42.2291C140.923 17.3226 156.998 0.000136626 184.024 0.000135445ZM184.024 61.846C201.595 61.846 210.222 54.5947 210.222 42.2115C210.222 29.8283 201.595 22.7523 184.024 22.7523C166.452 22.7523 157.825 30.0035 157.825 42.2115C157.825 54.4196 166.452 61.846 184.024 61.846Z" fill="white"/>
</g>
</g>
<defs>
<clipPath id="clip0_956_1085">
<rect width="1080" height="335" fill="white" transform="translate(0 1080) rotate(-90)"/>
</clipPath>
</defs>
</svg>
