<svg width="290" height="39" viewBox="0 0 290 39" fill="none" xmlns="http://www.w3.org/2000/svg">
<g clip-path="url(#clip0_1394_6910)">
<path d="M124.438 30.2481V6.66504H129.494L136.914 21.6223L144.235 6.66504H149.291V30.2481H145.036V13.9741L138.549 26.8763H135.187L128.7 13.9741V30.2481H124.445H124.438Z" fill="white"/>
<path d="M156.008 10.9481C155.233 10.9481 154.596 10.7153 154.097 10.2431C153.598 9.7709 153.349 9.17899 153.349 8.46073C153.349 7.74246 153.598 7.15056 154.097 6.69166C154.596 6.23277 155.233 6 156.008 6C156.783 6 157.42 6.23277 157.919 6.69166C158.418 7.15056 158.667 7.74246 158.667 8.46073C158.667 9.17899 158.418 9.77755 157.919 10.2431C157.42 10.7153 156.783 10.9481 156.008 10.9481ZM153.88 30.2548V13.5418H158.135V30.2548H153.88Z" fill="white"/>
<path d="M162.594 30.2484V13.5354H166.349L166.684 16.3619C167.197 15.371 167.932 14.5862 168.897 14.0009C169.862 13.4157 170.998 13.123 172.305 13.123C174.347 13.123 175.929 13.7748 177.059 15.0783C178.188 16.3818 178.753 18.2906 178.753 20.8045V30.2351H174.498V21.2035C174.498 19.767 174.209 18.663 173.631 17.9048C173.053 17.14 172.154 16.7609 170.939 16.7609C169.724 16.7609 168.759 17.1866 167.998 18.0379C167.229 18.8891 166.849 20.0796 166.849 21.6092V30.2351H162.594V30.2484Z" fill="white"/>
<path d="M190.401 30.6546C188.851 30.6546 187.459 30.2755 186.244 29.5107C185.023 28.7459 184.058 27.7017 183.349 26.3783C182.64 25.0548 182.285 23.5518 182.285 21.8625C182.285 20.1733 182.64 18.6769 183.349 17.3667C184.058 16.0499 185.023 15.019 186.244 14.2675C187.466 13.516 188.851 13.1369 190.401 13.1369C191.642 13.1369 192.732 13.3697 193.657 13.8419C194.59 14.3141 195.345 14.9791 195.916 15.8304V5.99414H200.171V30.2489H196.382L195.916 27.8547C195.384 28.5929 194.682 29.2447 193.802 29.81C192.922 30.3753 191.793 30.6546 190.394 30.6546H190.401ZM191.3 26.8837C192.673 26.8837 193.802 26.4182 194.675 25.4871C195.548 24.556 195.988 23.3589 195.988 21.8958C195.988 20.4326 195.548 19.2422 194.675 18.3044C193.802 17.3733 192.673 16.9078 191.3 16.9078C189.928 16.9078 188.825 17.3667 187.938 18.2911C187.052 19.2156 186.606 20.3994 186.606 21.8625C186.606 23.3256 187.046 24.5228 187.938 25.4671C188.825 26.4115 189.948 26.8837 191.3 26.8837Z" fill="white"/>
<path d="M205.266 30.2489V17.1406H203.001V13.5359H205.266V11.5807C205.266 9.55887 205.772 8.12234 206.776 7.27106C207.788 6.41978 209.153 5.99414 210.887 5.99414H212.719V9.66528H211.556C210.828 9.66528 210.302 9.81159 209.994 10.1042C209.685 10.3968 209.528 10.889 209.528 11.5873V13.5426H213.086V17.1472H209.528V30.2556H205.273L205.266 30.2489Z" fill="white"/>
<path d="M223.697 30.6544C222.101 30.6544 220.663 30.282 219.389 29.5438C218.115 28.7989 217.104 27.7747 216.362 26.4579C215.62 25.1411 215.246 23.6247 215.246 21.8956C215.246 20.1664 215.62 18.6434 216.375 17.3333C217.131 16.0164 218.142 14.9922 219.416 14.2474C220.689 13.5092 222.127 13.1367 223.723 13.1367C225.318 13.1367 226.723 13.5092 227.997 14.2474C229.271 14.9922 230.282 16.0164 231.024 17.3333C231.766 18.6501 232.14 20.1664 232.14 21.8956C232.14 23.6247 231.766 25.1477 231.024 26.4579C230.282 27.7681 229.264 28.7989 227.984 29.5438C226.697 30.282 225.266 30.6544 223.69 30.6544H223.697ZM223.697 26.9168C224.806 26.9168 225.771 26.4978 226.592 25.6532C227.413 24.8085 227.82 23.5582 227.82 21.8956C227.82 20.2329 227.413 18.9826 226.592 18.138C225.771 17.2934 224.819 16.8744 223.729 16.8744C222.639 16.8744 221.628 17.2934 220.821 18.138C220.013 18.9826 219.606 20.2329 219.606 21.8956C219.606 23.5582 220.013 24.8085 220.821 25.6532C221.628 26.4978 222.587 26.9168 223.697 26.9168Z" fill="white"/>
<path d="M235.936 30.2486V13.5356H239.731L240.131 16.668C240.729 15.5906 241.543 14.7327 242.574 14.0876C243.605 13.4425 244.819 13.1299 246.218 13.1299V17.6789H245.023C244.091 17.6789 243.257 17.8252 242.528 18.1178C241.799 18.4105 241.228 18.9159 240.814 19.6342C240.407 20.3524 240.197 21.35 240.197 22.6336V30.2486H235.942H235.936Z" fill="white"/>
<path d="M255.693 25.2673C254.892 25.2673 254.15 25.1808 253.467 24.9946L252.239 26.2382C252.613 26.4378 253.125 26.6107 253.769 26.7437C254.412 26.8767 255.456 27.0164 256.894 27.1494C259.087 27.3489 260.689 27.8809 261.681 28.7322C262.672 29.5835 263.178 30.7673 263.178 32.2703C263.178 33.2613 262.909 34.199 262.377 35.0836C261.845 35.9681 261.024 36.6864 259.915 37.2384C258.805 37.7904 257.387 38.063 255.66 38.063C253.309 38.063 251.412 37.6174 249.974 36.7329C248.529 35.8484 247.813 34.5116 247.813 32.7425C247.813 31.2395 248.536 29.936 249.974 28.832C249.527 28.6325 249.146 28.4196 248.825 28.1935C248.503 27.9674 248.221 27.7346 247.978 27.4886V26.7104L250.873 23.6112C249.586 22.4673 248.943 20.9976 248.943 19.1952C248.943 18.0713 249.212 17.0537 249.757 16.1293C250.302 15.2115 251.07 14.48 252.068 13.9413C253.066 13.4026 254.274 13.1299 255.693 13.1299C256.625 13.1299 257.492 13.2629 258.286 13.5356H264.537V16.1626L261.707 16.3621C262.147 17.2134 262.37 18.1577 262.37 19.1952C262.37 20.3192 262.101 21.3434 261.569 22.2612C261.037 23.179 260.269 23.9105 259.258 24.4492C258.247 24.9879 257.058 25.2606 255.68 25.2606L255.693 25.2673ZM251.701 32.3103C251.701 33.1416 252.081 33.7667 252.85 34.1791C253.618 34.5914 254.55 34.8042 255.66 34.8042C256.769 34.8042 257.59 34.5848 258.253 34.1458C258.917 33.7069 259.251 33.1216 259.251 32.3768C259.251 31.7716 259.035 31.2661 258.601 30.8604C258.168 30.4547 257.308 30.2087 256.021 30.1222C255.115 30.0557 254.268 29.9559 253.493 29.8163C252.85 30.1754 252.39 30.5678 252.114 30.9934C251.838 31.4191 251.701 31.858 251.701 32.3103ZM255.693 21.9685C256.559 21.9685 257.275 21.7358 257.84 21.2636C258.404 20.7914 258.687 20.1197 258.687 19.2418C258.687 18.3639 258.404 17.6922 257.84 17.22C257.275 16.7478 256.559 16.515 255.693 16.515C254.787 16.515 254.051 16.7478 253.5 17.22C252.948 17.6922 252.666 18.3639 252.666 19.2418C252.666 20.1197 252.941 20.7914 253.5 21.2636C254.051 21.7358 254.787 21.9685 255.693 21.9685Z" fill="white"/>
<path d="M274.983 30.6543C273.322 30.6543 271.845 30.2951 270.558 29.5769C269.271 28.8586 268.26 27.8477 267.531 26.5442C266.796 25.2407 266.435 23.7376 266.435 22.0284C266.435 20.3192 266.796 18.763 267.518 17.4129C268.24 16.0628 269.238 15.012 270.512 14.2605C271.786 13.509 273.289 13.1299 275.016 13.1299C276.632 13.1299 278.063 13.489 279.31 14.2073C280.558 14.9255 281.523 15.9098 282.219 17.1535C282.915 18.3972 283.27 19.7871 283.27 21.3168C283.27 21.5629 283.27 21.8222 283.25 22.0949C283.23 22.3676 283.224 22.6469 283.198 22.9395H270.656C270.742 24.2431 271.195 25.2673 272.003 26.0055C272.81 26.7437 273.795 27.1161 274.944 27.1161C275.811 27.1161 276.533 26.9166 277.124 26.5242C277.715 26.1318 278.148 25.6197 278.437 24.9946H282.758C282.449 26.052 281.93 27.0097 281.208 27.8743C280.486 28.7389 279.599 29.4172 278.549 29.9094C277.498 30.4015 276.303 30.6476 274.97 30.6476L274.983 30.6543ZM275.016 16.6414C273.972 16.6414 273.053 16.9407 272.259 17.5326C271.458 18.1311 270.952 19.029 270.729 20.246H278.943C278.877 19.1487 278.477 18.2708 277.748 17.619C277.019 16.9673 276.106 16.6414 275.023 16.6414H275.016Z" fill="white"/>
<path d="M283.69 11.5267V8.89972H282.889V8.1748H285.41V8.89972H284.589V11.5267H283.696H283.69ZM285.896 11.5267V8.1748H287.084L287.951 10.456L288.897 8.1748H290V11.5267H289.172L289.153 9.33201L288.24 11.5267H287.616L286.704 9.2522V11.5267H285.902H285.896Z" fill="white"/>
<path d="M63.9854 0.759766H42.8691V35.323H63.9854V0.759766Z" fill="#26C666"/>
<path d="M0 35.323H29.8621L63.9855 0.759766H34.1234L0 35.323Z" fill="#26C666"/>
<path d="M89.3896 22.0621C89.5144 14.2343 85.5223 12.4919 81.0246 7.36426L53.4277 35.3168H83.2898L96.3759 22.0621H89.3896Z" fill="#26C666"/>
<path fill-rule="evenodd" clip-rule="evenodd" d="M89.3369 22.0615V25.2272V27.3887V30.3216V35.3228H110.145V30.3216V27.3887V25.2272V22.0615H89.3369Z" fill="#26C666"/>
</g>
<defs>
<clipPath id="clip0_1394_6910">
<rect width="290" height="37.3099" fill="white" transform="translate(0 0.759766)"/>
</clipPath>
</defs>
</svg>
